<svg id="Layer_1" data-name="Layer 1" xmlns="http://www.w3.org/2000/svg" viewBox="0 0 208.79 137.88"><defs><style>.cls-1{fill:#fff;}.cls-2{fill:#9ea0a2;}.cls-3{fill:none;stroke:#e17f48;stroke-miterlimit:10;stroke-width:4.25px;}</style></defs><path class="cls-1" d="M47.64,167.58a2.22,2.22,0,0,0-1.12-1.91,4.5,4.5,0,0,0-2.41-.64,3.71,3.71,0,0,0-2.51.76,2.25,2.25,0,0,0-.88,1.74,2.28,2.28,0,0,0,.47,1.35,4.62,4.62,0,0,0,2.45,1.19l4.07,1.18q3.87,1.08,5.33,2.94a6.47,6.47,0,0,1,1.46,4.06,5.73,5.73,0,0,1-.78,2.92,8,8,0,0,1-2.14,2.37,10.37,10.37,0,0,1-3.26,1.62,14,14,0,0,1-4.14.59,12.42,12.42,0,0,1-7.06-1.91,7.66,7.66,0,0,1-2.31-2.33,6.33,6.33,0,0,1-1-3.26h6.52a3.94,3.94,0,0,0,1,1.91,3.54,3.54,0,0,0,2.75.89,5.14,5.14,0,0,0,2.68-.71,2.23,2.23,0,0,0,1.19-2,2.38,2.38,0,0,0-.75-1.76,6.2,6.2,0,0,0-2.71-1.27l-3.33-.89a11.94,11.94,0,0,1-5.13-2.62A5.71,5.71,0,0,1,35,164.66a7.6,7.6,0,0,1,2.24-2.32,9.9,9.9,0,0,1,3.19-1.5,14.71,14.71,0,0,1,3.94-.51,13.59,13.59,0,0,1,3.91.54,9.68,9.68,0,0,1,3.09,1.51,7.5,7.5,0,0,1,2,2.33,5.83,5.83,0,0,1,.75,2.87Z" transform="translate(-33.86 -73.22)"/><path class="cls-1" d="M62.44,160.62v-7.54h6.93v7.54h4.28v3.92H69.37V178.3a3.15,3.15,0,0,0,.24,1.37,1.45,1.45,0,0,0,.78.74,3.79,3.79,0,0,0,1.32.29c.52,0,1.17.05,1.94.05v4.7H70.79a12.59,12.59,0,0,1-4-.53,7.34,7.34,0,0,1-2.54-1.38,5.12,5.12,0,0,1-1.4-1.88,5.31,5.31,0,0,1-.44-2V164.54H59v-3.92Z" transform="translate(-33.86 -73.22)"/><path class="cls-1" d="M92.86,185.45v-2.54h-.13A11.77,11.77,0,0,1,90,185a8.5,8.5,0,0,1-3.91.74,11.84,11.84,0,0,1-2.48-.27,7.42,7.42,0,0,1-2.41-1,5,5,0,0,1-1.86-2,6.85,6.85,0,0,1-.72-3.35,12.83,12.83,0,0,1,.48-3.7,5.4,5.4,0,0,1,1.76-2.67,8.05,8.05,0,0,1,3.33-1.54,22.74,22.74,0,0,1,5.37-.52h.74a5.78,5.78,0,0,1,.75,0,6.15,6.15,0,0,0,.81.05c.32,0,.66,0,1,.05v-2.6a3,3,0,0,0-.74-2.1,3.55,3.55,0,0,0-2.72-.84,5,5,0,0,0-2.48.64,3,3,0,0,0-1.46,1.86H78.74a7.13,7.13,0,0,1,3.12-5.39,10.94,10.94,0,0,1,3.26-1.54,15.25,15.25,0,0,1,4.28-.56,16,16,0,0,1,4.07.49,10.1,10.1,0,0,1,3.33,1.47A7.29,7.29,0,0,1,99,164.74a6.87,6.87,0,0,1,.82,3.42v17.29Zm0-10.67a15.27,15.27,0,0,0-1.9-.15,8.86,8.86,0,0,0-3.84.76,2.8,2.8,0,0,0-1.59,2.77,3,3,0,0,0,1,2.3,3.74,3.74,0,0,0,2.65.88,4.18,4.18,0,0,0,2.75-.83,2.93,2.93,0,0,0,1-2.35Z" transform="translate(-33.86 -73.22)"/><path class="cls-1" d="M107.94,150.58h6.92v27.87a2.24,2.24,0,0,0,.71,1.93,5.6,5.6,0,0,0,2.69.67v4.7a30.63,30.63,0,0,1-4.28-.27,9,9,0,0,1-3.26-1,4.91,4.91,0,0,1-2.07-2.09,7.51,7.51,0,0,1-.71-3.55Z" transform="translate(-33.86 -73.22)"/><path class="cls-1" d="M124.57,174.38v-5H145v5Z" transform="translate(-33.86 -73.22)"/><path class="cls-1" d="M154.31,185.45V160.62h6.93V163h.13a9,9,0,0,1,2.62-1.93,8.68,8.68,0,0,1,3.9-.76,8,8,0,0,1,3.73.78,10.16,10.16,0,0,1,2.45,1.72,14.21,14.21,0,0,1,2.85-1.77,10.44,10.44,0,0,1,4.35-.73,11.22,11.22,0,0,1,2.65.32,7.22,7.22,0,0,1,2.44,1,5.86,5.86,0,0,1,1.76,1.88,5.41,5.41,0,0,1,.68,2.82v19h-6.92V168.26a2.75,2.75,0,0,0-.88-2.15,3.64,3.64,0,0,0-2.52-.79,3.4,3.4,0,0,0-2.71.89,3.79,3.79,0,0,0-.75,2.54v16.7h-6.93V168.26a2.72,2.72,0,0,0-.88-2.15,3.62,3.62,0,0,0-2.51-.79,3.44,3.44,0,0,0-2.72.89,3.85,3.85,0,0,0-.74,2.54v16.7Z" transform="translate(-33.86 -73.22)"/><path class="cls-1" d="M211.08,185.45v-2.54h-.14a11.57,11.57,0,0,1-2.75,2.1,8.48,8.48,0,0,1-3.9.74,11.7,11.7,0,0,1-2.48-.27,7.33,7.33,0,0,1-2.41-1,5,5,0,0,1-1.87-2,6.85,6.85,0,0,1-.71-3.35,12.84,12.84,0,0,1,.47-3.7,5.48,5.48,0,0,1,1.77-2.67,8,8,0,0,1,3.32-1.54,22.86,22.86,0,0,1,5.37-.52h.75a5.5,5.5,0,0,1,.74,0,6.32,6.32,0,0,0,.82.05c.31,0,.65,0,1,.05v-2.6a3,3,0,0,0-.75-2.1,3.55,3.55,0,0,0-2.72-.84,5,5,0,0,0-2.48.64,3,3,0,0,0-1.46,1.86H197a7.11,7.11,0,0,1,3.13-5.39,10.88,10.88,0,0,1,3.25-1.54,15.3,15.3,0,0,1,4.28-.56,16.18,16.18,0,0,1,4.08.49,10.14,10.14,0,0,1,3.32,1.47,7.43,7.43,0,0,1,2.18,2.45,7,7,0,0,1,.81,3.42v17.29Zm0-10.67a15.41,15.41,0,0,0-1.91-.15,8.78,8.78,0,0,0-3.83.76,2.79,2.79,0,0,0-1.6,2.77,3,3,0,0,0,.95,2.3,3.75,3.75,0,0,0,2.65.88,4.16,4.16,0,0,0,2.75-.83,2.91,2.91,0,0,0,1-2.35Z" transform="translate(-33.86 -73.22)"/><path class="cls-1" d="M226.56,185.45V160.62h6.92v2.65a22.26,22.26,0,0,1,4.14-2.16,14.17,14.17,0,0,1,5-.78v5.29a7.42,7.42,0,0,0-2.11-.3,11.21,11.21,0,0,0-2.34.27,7.11,7.11,0,0,0-2.27.91,5.22,5.22,0,0,0-1.77,1.66,4.57,4.57,0,0,0-.68,2.55v14.74Z" transform="translate(-33.86 -73.22)"/><path class="cls-2" d="M35.14,206.32V190.17h3.13v5.69h.06a3.62,3.62,0,0,1,1.24-.87,4.24,4.24,0,0,1,1.64-.31A4.16,4.16,0,0,1,43,195a3.08,3.08,0,0,1,1,.75,1.92,1.92,0,0,1,.4,1,13.47,13.47,0,0,1,.09,1.84v4.37a7.56,7.56,0,0,1-.12,1.52,2.81,2.81,0,0,1-.4,1,3.17,3.17,0,0,1-2.73,1.08,3.7,3.7,0,0,1-1.78-.34,6.83,6.83,0,0,1-1.19-.84v1Zm6.22-8A1.29,1.29,0,0,0,39.83,197a1.72,1.72,0,0,0-1.12.35,1.09,1.09,0,0,0-.44.89v4.47a1.32,1.32,0,0,0,.43,1,1.56,1.56,0,0,0,1.13.4,1.46,1.46,0,0,0,1.17-.43,1.72,1.72,0,0,0,.36-1.13Z" transform="translate(-33.86 -73.22)"/><path class="cls-2" d="M48.62,206.32v-11.5h3.13V196a10,10,0,0,1,1.87-1,6.23,6.23,0,0,1,2.27-.37v2.45a3.4,3.4,0,0,0-1-.13,5.14,5.14,0,0,0-1.06.12,3.24,3.24,0,0,0-1,.42,2.53,2.53,0,0,0-.79.77,2.1,2.1,0,0,0-.31,1.18v6.83Z" transform="translate(-33.86 -73.22)"/><path class="cls-2" d="M64.44,206.32v-1.18h-.07a5.06,5.06,0,0,1-1.24,1,3.69,3.69,0,0,1-1.76.34,5.4,5.4,0,0,1-1.12-.12,3,3,0,0,1-1.08-.47,2.34,2.34,0,0,1-.85-.91,3.38,3.38,0,0,1-.32-1.56,5.87,5.87,0,0,1,.22-1.71,2.53,2.53,0,0,1,.79-1.24,3.74,3.74,0,0,1,1.5-.71,10.16,10.16,0,0,1,2.42-.24h.34l.34,0a1.9,1.9,0,0,0,.37,0,3.78,3.78,0,0,1,.46,0v-1.2a1.46,1.46,0,0,0-.34-1,1.63,1.63,0,0,0-1.23-.38,2.25,2.25,0,0,0-1.12.29,1.41,1.41,0,0,0-.65.86h-3a3.3,3.3,0,0,1,1.41-2.49,5,5,0,0,1,1.47-.72,6.78,6.78,0,0,1,1.93-.26,7.19,7.19,0,0,1,1.84.23,4.68,4.68,0,0,1,1.5.68,3.33,3.33,0,0,1,1,1.13,3.28,3.28,0,0,1,.37,1.59v8Zm0-4.95a7.93,7.93,0,0,0-.86-.06,3.81,3.81,0,0,0-1.73.35,1.29,1.29,0,0,0-.72,1.28,1.37,1.37,0,0,0,.43,1.06,1.61,1.61,0,0,0,1.19.41A1.87,1.87,0,0,0,64,204a1.36,1.36,0,0,0,.45-1.09Z" transform="translate(-33.86 -73.22)"/><path class="cls-2" d="M71.42,206.32v-11.5h3.13v1.11h.06a3.91,3.91,0,0,1,1.18-.89,3.77,3.77,0,0,1,1.76-.36,3.54,3.54,0,0,1,1.68.37,4.65,4.65,0,0,1,1.11.79,6.5,6.5,0,0,1,1.28-.82,4.73,4.73,0,0,1,2-.34,5.06,5.06,0,0,1,1.2.15,3.14,3.14,0,0,1,1.1.49A2.5,2.5,0,0,1,87,197.5v8.82H83.86v-8a1.26,1.26,0,0,0-.4-1,1.61,1.61,0,0,0-1.13-.36,1.52,1.52,0,0,0-1.23.41,1.81,1.81,0,0,0-.33,1.17v7.74H77.64v-8a1.26,1.26,0,0,0-.4-1,1.61,1.61,0,0,0-1.13-.36,1.52,1.52,0,0,0-1.23.41,1.81,1.81,0,0,0-.33,1.17v7.74Z" transform="translate(-33.86 -73.22)"/><path class="cls-2" d="M89.8,194.82h3.31L95.26,202h.06l2.11-7.17h3.22l-4.47,13.49a3.58,3.58,0,0,1-.69,1.27,3.69,3.69,0,0,1-1,.82,4.17,4.17,0,0,1-1.24.44,7.56,7.56,0,0,1-1.36.13H91v-2.18h.7a3.09,3.09,0,0,0,.8-.09,1.21,1.21,0,0,0,.61-.41,3.12,3.12,0,0,0,.46-.9,15.2,15.2,0,0,0,.49-1.59Z" transform="translate(-33.86 -73.22)"/><path class="cls-2" d="M110.73,192.48v-2.31h3.13v2.31Zm0,13.84v-11.5h3.13v11.5Z" transform="translate(-33.86 -73.22)"/><path class="cls-2" d="M125,198.67a6.58,6.58,0,0,1,.12-1.29,2.52,2.52,0,0,1,.46-1,3.78,3.78,0,0,1,1.58-1.2,7,7,0,0,1,5,0,3.78,3.78,0,0,1,1.58,1.2,2.65,2.65,0,0,1,.46,1,6.58,6.58,0,0,1,.12,1.29v3.79a6.43,6.43,0,0,1-.12,1.29,2.63,2.63,0,0,1-.46,1.05,3.78,3.78,0,0,1-1.58,1.2,7.14,7.14,0,0,1-5,0,3.78,3.78,0,0,1-1.58-1.2,2.5,2.5,0,0,1-.46-1.05,6.43,6.43,0,0,1-.12-1.29Zm3.12,4.16a1.17,1.17,0,0,0,.42,1,1.71,1.71,0,0,0,1.11.33,1.74,1.74,0,0,0,1.12-.33,1.17,1.17,0,0,0,.42-1v-4.52a1.15,1.15,0,0,0-.42-1,1.74,1.74,0,0,0-1.12-.33,1.71,1.71,0,0,0-1.11.33,1.15,1.15,0,0,0-.42,1Z" transform="translate(-33.86 -73.22)"/><path class="cls-2" d="M141.28,207.66a1.19,1.19,0,0,0,.44.77,1.8,1.8,0,0,0,1.21.36,1.48,1.48,0,0,0,1.1-.35,1.25,1.25,0,0,0,.34-.9v-2.27h-.06a3.64,3.64,0,0,1-1.24.88,4.33,4.33,0,0,1-1.67.3,3.12,3.12,0,0,1-2.73-1.08,2.81,2.81,0,0,1-.4-1,7.56,7.56,0,0,1-.12-1.52v-4.37a13.47,13.47,0,0,1,.09-1.84,2.26,2.26,0,0,1,1.44-1.7,4,4,0,0,1,1.75-.3,4.81,4.81,0,0,1,1,.09,4.12,4.12,0,0,1,.75.25,3.47,3.47,0,0,1,.61.38l.58.46v-1h3.13v12.9a3,3,0,0,1-.26,1.19,3,3,0,0,1-.85,1.08,4.68,4.68,0,0,1-1.47.81,6.63,6.63,0,0,1-2.11.3,6.39,6.39,0,0,1-1.47-.17,4.16,4.16,0,0,1-1.41-.58,3.51,3.51,0,0,1-1.78-2.69Zm0-4.88a1.46,1.46,0,0,0,.32.95,1.48,1.48,0,0,0,1.21.41,1.78,1.78,0,0,0,1.12-.35,1.11,1.11,0,0,0,.44-.9v-4.46a1.34,1.34,0,0,0-.43-1,1.6,1.6,0,0,0-1.13-.39,1.46,1.46,0,0,0-1.17.43,1.68,1.68,0,0,0-.36,1.13Z" transform="translate(-33.86 -73.22)"/><path class="cls-2" d="M151.63,206.32v-11.5h3.13V196a9.68,9.68,0,0,1,1.87-1,6.21,6.21,0,0,1,2.26-.37v2.45a3.3,3.3,0,0,0-.95-.13,5,5,0,0,0-1.05.12,3.24,3.24,0,0,0-1,.42,2.56,2.56,0,0,0-.8.77,2.18,2.18,0,0,0-.3,1.18v6.83Z" transform="translate(-33.86 -73.22)"/><path class="cls-2" d="M161.25,198.67a5.88,5.88,0,0,1,.13-1.29,2.64,2.64,0,0,1,.45-1,3.84,3.84,0,0,1,1.58-1.2,7,7,0,0,1,5,0,3.84,3.84,0,0,1,1.58,1.2,2.8,2.8,0,0,1,.46,1,6.58,6.58,0,0,1,.12,1.29v3.79a6.43,6.43,0,0,1-.12,1.29,2.78,2.78,0,0,1-.46,1.05,3.84,3.84,0,0,1-1.58,1.2,7.17,7.17,0,0,1-5,0,3.84,3.84,0,0,1-1.58-1.2,2.62,2.62,0,0,1-.45-1.05,5.75,5.75,0,0,1-.13-1.29Zm3.13,4.16a1.2,1.2,0,0,0,.41,1,2.07,2.07,0,0,0,2.24,0,1.2,1.2,0,0,0,.41-1v-4.52a1.17,1.17,0,0,0-.41-1,2.07,2.07,0,0,0-2.24,0,1.17,1.17,0,0,0-.41,1Z" transform="translate(-33.86 -73.22)"/><path class="cls-2" d="M180.65,206.32v-1l-.58.47a3.18,3.18,0,0,1-.62.37,3.23,3.23,0,0,1-.76.25,5.09,5.09,0,0,1-1,.09,3.11,3.11,0,0,1-2.72-1.08,2.46,2.46,0,0,1-.4-1,7.56,7.56,0,0,1-.12-1.52v-4.37a13.47,13.47,0,0,1,.09-1.84A2.22,2.22,0,0,1,176,195a4,4,0,0,1,1.75-.3,4.16,4.16,0,0,1,1.63.31,3.56,3.56,0,0,1,1.25.87h.06v-5.69h3.12v16.15Zm-3.1-3.74a1.67,1.67,0,0,0,.37,1.13,1.44,1.44,0,0,0,1.16.43,1.6,1.6,0,0,0,1.14-.4,1.36,1.36,0,0,0,.43-1v-4.47a1.08,1.08,0,0,0-.45-.89,1.71,1.71,0,0,0-1.12-.35,1.46,1.46,0,0,0-1.21.41,1.51,1.51,0,0,0-.32,1Z" transform="translate(-33.86 -73.22)"/><path class="cls-2" d="M187.14,206.32v-1.84l5.06-7.62h-4.66v-2h8.21v1.84l-5.05,7.48h5.05v2.18Z" transform="translate(-33.86 -73.22)"/><path class="cls-2" d="M208,201.44h-6.19V203a1,1,0,0,0,.41.84,2,2,0,0,0,1.12.29,1.41,1.41,0,0,0,1.18-.39,1.62,1.62,0,0,0,.35-.77H208a2.89,2.89,0,0,1-1.26,2.45,4.63,4.63,0,0,1-1.47.75,6.38,6.38,0,0,1-1.93.27,6.24,6.24,0,0,1-2.5-.45,3.74,3.74,0,0,1-1.57-1.2,2.5,2.5,0,0,1-.46-1.05,6.4,6.4,0,0,1-.13-1.29v-3.79a6.56,6.56,0,0,1,.13-1.29,2.52,2.52,0,0,1,.46-1,3.74,3.74,0,0,1,1.57-1.2,6.07,6.07,0,0,1,2.5-.46,6.29,6.29,0,0,1,2,.28,4.77,4.77,0,0,1,1.48.74,3.2,3.2,0,0,1,1.23,2.57Zm-6.19-1.81h3.06v-1.32a1.14,1.14,0,0,0-.41-1,2.07,2.07,0,0,0-2.24,0,1.17,1.17,0,0,0-.41,1Z" transform="translate(-33.86 -73.22)"/><path class="cls-2" d="M211.84,206.32v-11.5H215v1.11H215a3.91,3.91,0,0,1,1.18-.89,3.74,3.74,0,0,1,1.76-.36,4.68,4.68,0,0,1,1.16.15,2.85,2.85,0,0,1,1,.49,2.6,2.6,0,0,1,.74.87,2.89,2.89,0,0,1,.27,1.31v8.82h-3.12v-8a1.26,1.26,0,0,0-.4-1,1.63,1.63,0,0,0-1.13-.36,1.51,1.51,0,0,0-1.23.41,1.81,1.81,0,0,0-.34,1.17v7.74Z" transform="translate(-33.86 -73.22)"/><path class="cls-2" d="M225.32,192.48v-2.31h3.13v2.31Zm0,13.84v-11.5h3.13v11.5Z" transform="translate(-33.86 -73.22)"/><path class="cls-2" d="M238.49,206.32v-1.18h-.06a5.06,5.06,0,0,1-1.24,1,3.69,3.69,0,0,1-1.76.34,5.4,5.4,0,0,1-1.12-.12,3.17,3.17,0,0,1-1.09-.47,2.39,2.39,0,0,1-.84-.91,3.38,3.38,0,0,1-.32-1.56,6.25,6.25,0,0,1,.21-1.71,2.62,2.62,0,0,1,.8-1.24,3.74,3.74,0,0,1,1.5-.71,10.16,10.16,0,0,1,2.42-.24h.34l.34,0a1.86,1.86,0,0,0,.36,0,3.62,3.62,0,0,1,.46,0v-1.2a1.45,1.45,0,0,0-.33-1,1.63,1.63,0,0,0-1.23-.38,2.25,2.25,0,0,0-1.12.29,1.46,1.46,0,0,0-.66.86h-3a3.3,3.3,0,0,1,1.41-2.49,5,5,0,0,1,1.47-.72,6.78,6.78,0,0,1,1.93-.26,7.24,7.24,0,0,1,1.84.23,4.68,4.68,0,0,1,1.5.68,3.33,3.33,0,0,1,1,1.13,3.28,3.28,0,0,1,.37,1.59v8Zm0-4.95a7.61,7.61,0,0,0-.85-.06,3.79,3.79,0,0,0-1.73.35,1.28,1.28,0,0,0-.72,1.28,1.4,1.4,0,0,0,.42,1.06,1.65,1.65,0,0,0,1.2.41,1.87,1.87,0,0,0,1.24-.38,1.35,1.35,0,0,0,.44-1.09Z" transform="translate(-33.86 -73.22)"/><path class="cls-3" d="M69.54,56.89H104.4a0,0,0,0,1,0,0V67.51A1.48,1.48,0,0,1,102.91,69H71a1.48,1.48,0,0,1-1.48-1.48V56.89A0,0,0,0,1,69.54,56.89Z"/><rect class="cls-3" x="69.54" y="44.79" width="34.85" height="12.1"/><rect class="cls-3" x="69.54" y="30.41" width="34.85" height="14.38"/><path class="cls-3" d="M104,96.31l33.8-20.91a.3.3,0,0,1,.46.25V91.58a0,0,0,0,1,0,0h0v12H103.4V97.37A1.25,1.25,0,0,1,104,96.31Z" transform="translate(-33.86 -73.22)"/><path class="cls-3" d="M148.32,130.12h31.88a1.48,1.48,0,0,1,1.48,1.48v10.61a0,0,0,0,1,0,0H146.84a0,0,0,0,1,0,0V131.6A1.48,1.48,0,0,1,148.32,130.12Z" transform="translate(294.68 199.11) rotate(180)"/><rect class="cls-3" x="146.84" y="118.02" width="34.85" height="12.1" transform="translate(294.68 174.91) rotate(180)"/><rect class="cls-3" x="146.84" y="103.64" width="34.85" height="14.38" transform="translate(294.68 148.43) rotate(180)"/><path class="cls-3" d="M181.1,96.31,147.3,75.4a.3.3,0,0,0-.46.25V91.58a0,0,0,0,0,0,0h0v12h34.85V97.37A1.25,1.25,0,0,0,181.1,96.31Z" transform="translate(-33.86 -73.22)"/></svg>